<?xml version="1.0" encoding="UTF-8" standalone="no"?>
<!DOCTYPE svg PUBLIC "-//W3C//DTD SVG 1.1//EN" "http://www.w3.org/Graphics/SVG/1.1/DTD/svg11.dtd">
<svg width="100%" height="100%" viewBox="0 0 1700 2655" version="1.1" xmlns="http://www.w3.org/2000/svg" xmlns:xlink="http://www.w3.org/1999/xlink" xml:space="preserve" xmlns:serif="http://www.serif.com/" style="fill-rule:evenodd;clip-rule:evenodd;stroke-linejoin:round;stroke-miterlimit:2;">
    <g transform="matrix(1,0,0,1,-247.946,-131.94)">
        <g transform="matrix(1,0,0,1,-298.31,-297.33)">
            <g transform="matrix(1,0,0,1,110.517,53.4417)">
                <path d="M629.491,2408.52L629.491,702.147L1115.57,375.828L1115.57,1415.97L1567.66,1113.44L2012.95,1528.14L1798.8,1687.9L1798.8,2357.54L1941.57,2534.29L2135.32,2442.51L1608.45,3027.17L1336.52,2697.45L1336.52,1898.65L1462.28,1800.07L1139.36,1480.55L1112.17,1497.55L1112.17,2085.6L898.024,2269.16L1237.94,2673.66L823.243,3030.57L435.739,2595.48L629.491,2408.52Z" style="fill:white;"/>
            </g>
        </g>
    </g>
</svg>
